<?xml version="1.0" encoding="utf-8"?>
<!-- Generator: Adobe Illustrator 17.1.0, SVG Export Plug-In . SVG Version: 6.00 Build 0)  -->
<!DOCTYPE svg PUBLIC "-//W3C//DTD SVG 1.1//EN" "http://www.w3.org/Graphics/SVG/1.1/DTD/svg11.dtd">
<svg version="1.1" id="Layer_1" xmlns="http://www.w3.org/2000/svg" xmlns:xlink="http://www.w3.org/1999/xlink" x="0px" y="0px"
	 viewBox="0 0 48 48" enable-background="new 0 0 48 48" xml:space="preserve">
<polygon fill="none" stroke="#000000" stroke-width="2" stroke-miterlimit="10" points="46.6,3.6 12.9,3.6 1.9,46.6 35.7,46.6 "/>
<g>
	<path stroke="#000000" stroke-miterlimit="10" d="M11.7,36.5"/>
	<path stroke="#000000" stroke-miterlimit="10" d="M8.5,28.3"/>
	<path stroke="#000000" stroke-miterlimit="10" d="M25.3,4.6"/>
	<polygon stroke="#000000" stroke-miterlimit="10" points="27.9,16.9 26.8,21.1 20.1,21.1 16.1,36.4 22.4,36.4 21.3,40.9 9.4,40.9 
		15.6,16.9 	"/>
	<path stroke="#000000" stroke-miterlimit="10" d="M17.4,9.9h16.9c3.8,0,5.7,1.1,5.7,3.2c0,0.4-0.1,0.8-0.2,1.2l-2.5,9.4
		c-0.7,2.6-2.5,4-5.4,4.2c0,0-1.3,0-1.3,0l0.9,12.9h-6.1l-1.1-17.1h5.2c1.1,0,1.8-0.7,2.2-2.2l1.3-5c0.1-0.4,0.2-0.7,0.2-1
		c0-0.8-0.4-1.2-1.2-1.2H16.3L17.4,9.9z"/>
	<path stroke="#000000" stroke-miterlimit="10" d="M29.3,16.5"/>
	<path stroke="#000000" stroke-miterlimit="10" d="M23.8,41.1"/>
	<path stroke="#000000" stroke-miterlimit="10" d="M33.3,40.6"/>
	<path stroke="#000000" stroke-miterlimit="10" d="M14.7,42"/>
</g>
</svg>
