<?xml version="1.0" encoding="utf-8"?>
<!-- Generator: Adobe Illustrator 17.1.0, SVG Export Plug-In . SVG Version: 6.00 Build 0)  -->
<!DOCTYPE svg PUBLIC "-//W3C//DTD SVG 1.1//EN" "http://www.w3.org/Graphics/SVG/1.1/DTD/svg11.dtd">
<svg version="1.1" id="Layer_1" xmlns="http://www.w3.org/2000/svg" xmlns:xlink="http://www.w3.org/1999/xlink" x="0px" y="0px"
	 viewBox="0 0 108 108" enable-background="new 0 0 108 108" xml:space="preserve">
<polygon fill="none" stroke="#000000" stroke-width="5" stroke-miterlimit="10" points="104.3,7.8 29.5,7.8 5.1,103.2 80.2,103.2 
	"/>
<g>
	<path stroke="#000000" stroke-width="3" stroke-miterlimit="10" d="M26.8,80.8"/>
	<path stroke="#000000" stroke-width="3" stroke-miterlimit="10" d="M19.7,62.7"/>
	<path stroke="#000000" stroke-width="3" stroke-miterlimit="10" d="M57,9.9"/>
	<polygon stroke="#000000" stroke-width="3" stroke-miterlimit="10" points="63,37.3 60.4,46.7 45.5,46.7 36.6,80.7 50.7,80.7 
		48.2,90.6 21.8,90.6 35.7,37.3 	"/>
	<path stroke="#000000" stroke-width="3" stroke-miterlimit="10" d="M39.6,21.9h37.6c8.5,0,12.7,2.4,12.7,7.1c0,0.8-0.1,1.7-0.4,2.7
		l-5.6,20.9c-1.5,5.7-5.5,8.8-12,9.4c-0.1,0-2.9,0-3,0l2,28.6H57.4l-2.4-38h11.6c2.5,0,4.1-1.6,5-4.9l3-11c0.2-0.9,0.3-1.6,0.3-2.3
		c0-1.8-0.9-2.6-2.6-2.6H37.1L39.6,21.9z"/>
	<path stroke="#000000" stroke-width="3" stroke-miterlimit="10" d="M65.9,36.3"/>
	<path stroke="#000000" stroke-width="3" stroke-miterlimit="10" d="M53.8,91.1"/>
	<path stroke="#000000" stroke-width="3" stroke-miterlimit="10" d="M74.8,90"/>
	<path stroke="#000000" stroke-width="3" stroke-miterlimit="10" d="M33.6,93.1"/>
</g>
</svg>
